Coordinates
version=1
nRows=21
nColumns=12
inDegrees=yes

Units are S.I. units (second, meters, Newtons, ...)
Angles are in degrees

endheader
time	SC_y	SC_z	SC_x	AC_y	AC_z	AC_x	GH_y	GH_z	GH_yy	EL_x	PS_y
       0.0              -31.98          7.931          61.59          35.17         -18.29         -14.55          139.4         -18.81         -86.46          120.0          123.2
   0.04266              -31.98           7.93          61.59          35.17         -18.29         -14.55          139.3          -18.8         -86.44          120.0          123.2
   0.08532              -31.98          7.929          61.58          35.17         -18.29         -14.55          139.3         -18.79         -86.41          120.0          123.2
     0.128              -31.98          7.928          61.58          35.18         -18.28         -14.55          139.3         -18.78         -86.39          120.0          123.2
    0.1706              -31.98          7.927          61.57          35.18         -18.28         -14.55          139.3         -18.77         -86.37          120.0          123.2
    0.2133              -31.98          7.926          61.56          35.19         -18.27         -14.55          139.2         -18.76         -86.34          120.0          123.2
    0.2559              -31.97          7.925          61.55          35.19         -18.27         -14.55          139.2         -18.75         -86.32          119.9          123.2
    0.2986              -31.97          7.923          61.55           35.2         -18.26         -14.55          139.2         -18.74         -86.29          119.9          123.2
    0.3413              -31.97          7.922          61.54           35.2         -18.25         -14.55          139.1         -18.73         -86.26          119.9          123.2
    0.3839              -31.97           7.92          61.53          35.21         -18.25         -14.55          139.1         -18.72         -86.22          119.9          123.2
    0.4266              -31.96          7.918          61.52          35.21         -18.24         -14.55          139.0          -18.7         -86.19          119.9          123.2
    0.4692              -31.96          7.917          61.51          35.22         -18.23         -14.55          139.0         -18.69         -86.15          119.9          123.2
    0.5119              -31.96          7.915          61.49          35.23         -18.23         -14.55          139.0         -18.67         -86.11          119.9          123.2
    0.5546              -31.95          7.912          61.48          35.24         -18.22         -14.54          138.9         -18.65         -86.06          119.9          123.3
    0.5972              -31.95           7.91          61.47          35.24         -18.21         -14.54          138.8         -18.63         -86.01          119.9          123.3
    0.6399              -31.94          7.908          61.45          35.25          -18.2         -14.54          138.8         -18.61         -85.96          119.8          123.3
    0.6825              -31.94          7.905          61.44          35.26         -18.19         -14.54          138.7         -18.59          -85.9          119.8          123.3
    0.7252              -31.93          7.902          61.42          35.27         -18.17         -14.54          138.7         -18.57         -85.84          119.8          123.3
    0.7678              -31.93          7.899           61.4          35.29         -18.16         -14.54          138.6         -18.54         -85.77          119.8          123.3
    0.8105              -31.92          7.895          61.38           35.3         -18.15         -14.54          138.5         -18.51          -85.7          119.8          123.3
    0.8532              -31.92          7.891          61.35          35.31         -18.13         -14.53          138.4         -18.48         -85.61          119.8          123.3
